<?xml version="1.0" standalone="no"?>
<!DOCTYPE svg PUBLIC "-//W3C//DTD SVG 20010904//EN"
 "http://www.w3.org/TR/2001/REC-SVG-20010904/DTD/svg10.dtd">
<svg version="1.0" xmlns="http://www.w3.org/2000/svg"
 width="512.000000pt" height="512.000000pt" viewBox="0 0 512.000000 512.000000"
 preserveAspectRatio="xMidYMid meet">
<metadata>
Created by potrace 1.14, written by Peter Selinger 2001-2017
</metadata>
<g transform="translate(0.000000,512.000000) scale(0.100000,-0.100000)"
fill="#000000" stroke="none">
<path d="M1067 4224 c-1 -1 -31 -4 -67 -8 -85 -8 -120 -17 -205 -51 -100 -40
-168 -87 -260 -180 -117 -118 -186 -258 -215 -440 -6 -38 -26 -155 -45 -260
-19 -104 -36 -203 -39 -220 -2 -16 -13 -82 -25 -145 -11 -63 -23 -131 -26
-150 -3 -19 -8 -42 -10 -50 -2 -8 -6 -33 -10 -55 -3 -22 -15 -89 -26 -150 -11
-60 -22 -126 -25 -145 -3 -19 -21 -120 -40 -225 -19 -104 -37 -206 -40 -225
-11 -65 -14 -80 -20 -108 -13 -61 -12 -239 3 -307 95 -450 563 -713 998 -562
203 69 372 233 454 438 l29 72 68 2 c84 3 142 18 215 57 114 60 212 192 239
323 10 50 14 55 38 56 174 4 1015 0 1019 -5 4 -4 8 -14 9 -24 15 -99 61 -194
131 -265 52 -54 145 -109 213 -127 25 -7 78 -13 119 -15 l74 -2 17 -44 c78
-203 200 -341 385 -432 75 -37 150 -61 230 -72 53 -7 165 -8 201 -1 12 2 37 7
57 10 19 3 66 17 103 31 38 15 77 29 87 32 9 3 17 9 17 14 0 5 6 9 14 9 35 0
177 126 240 215 149 207 177 421 101 765 -2 8 -4 18 -4 22 -2 16 -47 48 -68
48 -13 0 -22 3 -21 8 1 4 -2 30 -7 57 -10 65 -12 75 -20 105 -5 21 0 30 24 48
38 28 39 38 6 224 -14 79 -39 220 -55 313 -17 94 -32 182 -35 198 -7 37 -12
64 -20 112 -4 22 -15 87 -25 145 -11 58 -22 119 -25 135 -2 17 -7 39 -9 50 -4
23 -16 107 -17 117 -1 26 -51 182 -72 229 -103 222 -350 400 -589 424 -87 9
-2578 9 -2607 0 -12 -4 -29 -21 -36 -37 -12 -30 -14 -31 -79 -30 -140 1 -133
0 -140 27 -9 35 -36 45 -127 48 -44 1 -81 1 -82 1z"/>
</g>
</svg>
